<?xml version="1.0" standalone="no"?>
<!DOCTYPE svg PUBLIC "-//W3C//DTD SVG 20010904//EN"
 "http://www.w3.org/TR/2001/REC-SVG-20010904/DTD/svg10.dtd">
<svg version="1.0" xmlns="http://www.w3.org/2000/svg"
 width="1280.000000pt" height="1162.000000pt" viewBox="0 0 1280.000000 1162.000000"
 preserveAspectRatio="xMidYMid meet">
<g transform="translate(0.000000,1162.000000) scale(0.100000,-0.100000)"
fill="#000000" stroke="none">
<path d="M8360 11601 c-261 -53 -368 -142 -420 -347 -23 -88 -28 -286 -9 -376
29 -145 104 -316 195 -445 110 -155 312 -332 469 -410 120 -60 157 -68 315
-68 193 1 283 28 468 143 46 29 89 52 95 51 17 -1 400 -291 405 -306 3 -10
-989 -13 -4937 -13 l-4941 0 0 -120 0 -120 5098 -2 c4340 -3 5102 -5 5131 -17
49 -20 691 -503 691 -519 0 -32 -470 -505 -750 -755 -362 -323 -693 -500
-1157 -616 -65 -16 -253 -57 -418 -91 -491 -100 -678 -152 -892 -248 -124 -55
-169 -86 -208 -142 -39 -56 -54 -106 -55 -177 l0 -62 58 -47 c67 -55 169 -105
267 -129 56 -14 129 -19 365 -22 326 -5 400 3 645 67 349 91 724 280 1023 517
116 91 329 297 421 408 337 404 611 810 741 1103 26 58 53 108 60 110 6 2 35
-11 63 -30 82 -55 113 -68 160 -68 50 0 71 18 107 89 l22 44 -92 89 c-85 82
-223 189 -514 401 -59 42 -104 82 -101 87 4 7 378 10 1071 10 l1064 0 0 120 0
120 -1222 0 c-1166 0 -1225 1 -1264 19 -41 18 -645 468 -675 502 -16 18 -15
24 12 94 51 131 72 238 67 345 -6 113 -27 176 -99 285 -119 182 -313 322 -605
434 -123 48 -185 64 -324 87 -152 24 -233 25 -330 5z"/>
<path d="M6619 9461 c-163 -31 -337 -104 -451 -190 -129 -98 -216 -208 -288
-365 -152 -327 -78 -705 190 -977 182 -184 420 -281 690 -281 181 0 368 51
514 139 147 90 312 290 377 457 38 97 69 240 69 316 -1 166 -88 393 -218 563
-106 140 -316 269 -517 318 -90 22 -294 33 -366 20z"/>
<path d="M3880 8065 c-367 -43 -718 -154 -1111 -351 -235 -117 -469 -261 -624
-382 -107 -85 -340 -324 -439 -452 -164 -211 -294 -425 -273 -446 7 -7 76 29
417 216 554 304 791 408 1150 505 337 92 567 125 907 132 326 7 531 -9 973
-77 311 -47 394 -39 473 50 61 67 81 129 75 229 -5 83 -34 161 -81 217 -51 60
-291 194 -467 261 -253 96 -672 137 -1000 98z"/>
<path d="M0 5230 l0 -120 6400 0 6400 0 0 120 0 120 -6400 0 -6400 0 0 -120z"/>
<path d="M4845 4857 c-77 -20 -154 -67 -196 -119 -167 -212 -147 -752 50
-1323 72 -209 178 -488 314 -830 57 -143 101 -265 98 -272 -4 -7 -114 -85
-246 -174 -435 -292 -398 -261 -1095 -939 -580 -564 -751 -717 -1136 -1017
-55 -43 -103 -89 -118 -115 -14 -23 -24 -44 -22 -46 4 -3 218 81 366 145 443
192 1953 946 2160 1078 280 179 683 484 746 564 127 162 182 389 171 704 -12
320 -72 645 -202 1097 -66 229 -237 775 -253 805 -8 17 -41 59 -72 95 -32 36
-78 97 -103 135 -87 133 -138 188 -187 203 -65 19 -215 24 -275 9z"/>
<path d="M6107 4810 c-161 -41 -225 -139 -214 -326 16 -272 235 -670 582
-1059 269 -302 1198 -1207 1670 -1626 486 -432 859 -733 1325 -1069 573 -414
893 -636 966 -673 55 -28 154 -50 167 -37 11 10 -70 104 -286 335 -93 99 -207
225 -252 280 -46 55 -454 597 -907 1205 -1259 1689 -1466 1964 -1584 2105
-130 154 -378 407 -486 494 -189 152 -390 264 -603 337 -98 33 -122 38 -225
40 -63 2 -132 -1 -153 -6z"/>
</g>
</svg>
